<?xml version="1.0" encoding="utf-8"?>
<!-- Generator: Adobe Illustrator 21.1.0, SVG Export Plug-In . SVG Version: 6.00 Build 0)  -->
<svg version="1.1" id="Layer_1" xmlns="http://www.w3.org/2000/svg" xmlns:xlink="http://www.w3.org/1999/xlink" x="0px" y="0px"
	 width="1028.1px" height="198.5px" viewBox="0 0 1028.1 198.5" style="enable-background:new 0 0 1028.1 198.5;"
	 xml:space="preserve">
<style type="text/css">
	.st0{enable-background:new    ;}
	.st1{fill:#FFFFFF;}
</style>
<g class="st0">
	<path class="st1" d="M30.6,43.8v7.3c0,4.4-1.1,7.8-3.1,10.2c-2.1,2.4-5.3,3.6-9.4,3.6s-7.2-1.2-9.4-3.6c-2.1-2.4-3.1-5.8-3.1-10.2
		V22.6c0-4.4,1.1-7.8,3.1-10.2c2.1-2.4,5.3-3.6,9.4-3.6s7.2,1.2,9.4,3.6s3.1,5.8,3.1,10.2v5.3h-7.9V22c0-2-0.4-3.4-1.2-4.2
		c-0.8-0.8-1.9-1.2-3.1-1.2c-1.4,0-2.3,0.4-3.1,1.2c-0.8,0.8-1.2,2.2-1.2,4.2v29.6c0,2,0.4,3.4,1.2,4.1c0.8,0.8,1.9,1.2,3.1,1.2
		c1.4,0,2.3-0.4,3.1-1.2c0.8-0.8,1.2-2.2,1.2-4.1v-7.8C22.7,43.8,30.6,43.8,30.6,43.8z"/>
	<path class="st1" d="M44.3,64.2h-8.4V9.5h26.4v54.8h-8.6v-47h-9.6L44.3,64.2L44.3,64.2z"/>
	<path class="st1" d="M95.5,64.2H87l-1.5-9.9H75.3l-1.5,9.9h-7.7l8.6-54.8H87L95.5,64.2z M76.4,46.9h8.1l-4-27.7L76.4,46.9z"/>
	<path class="st1" d="M123.6,43.8v7.3c0,4.4-1.1,7.8-3.1,10.2c-2.1,2.4-5.3,3.6-9.4,3.6s-7.2-1.2-9.4-3.6c-2.1-2.4-3.1-5.8-3.1-10.2
		V22.6c0-4.4,1.1-7.8,3.1-10.2c2.1-2.4,5.3-3.6,9.4-3.6s7.2,1.2,9.4,3.6s3.1,5.8,3.1,10.2v5.3h-7.9V22c0-2-0.4-3.4-1.2-4.2
		s-1.9-1.2-3.1-1.2c-1.4,0-2.3,0.4-3.1,1.2c-0.8,0.8-1.2,2.2-1.2,4.2v29.6c0,2,0.4,3.4,1.2,4.1c0.8,0.8,1.9,1.2,3.1,1.2
		c1.4,0,2.3-0.4,3.1-1.2c0.8-0.8,1.2-2.2,1.2-4.1v-7.8C115.7,43.8,123.6,43.8,123.6,43.8z"/>
	<path class="st1" d="M137.2,32.6h11.5v7.8h-11.5v16h14.4v7.8h-22.8V9.5h22.8v7.8h-14.4L137.2,32.6L137.2,32.6z"/>
	<path class="st1" d="M165.1,64.2h-8.4V9.5h8.4V33h9.6V9.5h8.6v54.8h-8.6V40.8h-9.6V64.2z"/>
	<path class="st1" d="M197.6,64.2h-8.4V9.5h8.4V33h9.6V9.5h8.6v54.8h-8.6V40.8h-9.6V64.2z"/>
	<path class="st1" d="M221.8,64.2V9.5h8.4v20.6h4c4.2,0,7.3,1.1,9.4,3.4c2,2.3,3.1,5.7,3.1,10.1v7.1c0,4.4-1.1,7.8-3.1,10.1
		c-2,2.3-5.2,3.4-9.4,3.4H221.8z M234.1,56.4c1.4,0,2.3-0.4,3-1.1c0.7-0.7,1.1-2.1,1.1-4.1V43c0-2-0.4-3.3-1.1-4.1
		c-0.7-0.7-1.8-1.1-3-1.1h-4v18.5L234.1,56.4L234.1,56.4z M250.7,9.5h8.4v54.8h-8.4V9.5z"/>
	<path class="st1" d="M273.6,32.6h11.5v7.8h-11.5v16H288v7.8h-22.8V9.5H288v7.8h-14.4V32.6z"/>
</g>
<g class="st0">
	<path class="st1" d="M23.3,194.6H5.4V77.2h17.9v50.3h20.5V77.2h18.3v117.5H43.8v-50.3H23.3V194.6z"/>
	<path class="st1" d="M133.2,194.6h-18.1l-3.1-21.3H89.8l-3.1,21.3H70.2L88.6,77.2h26.3L133.2,194.6z M92.2,157.4h17.4L100.9,98
		L92.2,157.4z"/>
	<path class="st1" d="M179.7,160.5l12.3-83.4h25v117.5h-17v-84.2l-12.4,84.2h-17l-13.4-83.1v83.1h-15.7V77.2h25L179.7,160.5z"/>
	<path class="st1" d="M248.4,194.6H230V77.2h16v70.3l18.4-70.3h22.5v117.5h-16.2v-85.1L248.4,194.6z"/>
</g>
<path class="st1" d="M332.4,195.3h-29.5V7.3H396v188H366V34.1h-33.6V195.3z"/>
<path class="st1" d="M455,7.3c14.9,0,25.9,3.9,33.2,11.8c7.3,7.9,10.9,19.4,10.9,34.6v24.4c0,15.2-3.6,26.8-10.9,34.6
	c-7.3,7.9-18.3,11.8-33.2,11.8h-14v70.6h-29.5V7.3H455z M441.1,34.1v63.6h14c4.7,0,8.2-1.3,10.7-3.8c2.5-2.5,3.8-7.2,3.8-14V51.9
	c0-6.8-1.3-11.5-3.8-14c-2.5-2.5-6.1-3.8-10.7-3.8H441.1z"/>
<path class="st1" d="M505.8,52.4c0-15.2,3.8-26.9,11.5-35c7.7-8.1,18.8-12.2,33.3-12.2c14.5,0,25.6,4.1,33.3,12.2
	c7.7,8.1,11.5,19.8,11.5,35v97.7c0,15.2-3.9,26.9-11.5,35c-7.7,8.1-18.8,12.2-33.3,12.2c-14.5,0-25.6-4.1-33.3-12.2
	c-7.7-8.1-11.5-19.8-11.5-35V52.4z M535.3,152c0,6.8,1.4,11.6,4.2,14.4c2.8,2.8,6.5,4.2,11.1,4.2c4.7,0,8.4-1.4,11.1-4.2
	c2.8-2.8,4.2-7.6,4.2-14.4V50.5c0-6.8-1.4-11.6-4.2-14.4c-2.8-2.8-6.5-4.2-11.1-4.2c-4.7,0-8.4,1.4-11.1,4.2
	c-2.8,2.8-4.2,7.6-4.2,14.4V152z"/>
<path class="st1" d="M634.8,86.5h40.5v26.9h-40.5v55h51v26.9h-80.6V7.3h80.6v26.9h-51V86.5z"/>
<path class="st1" d="M735,120.3l-9.1,17.2v57.7h-29.5V7.3h29.5v81.9L765,7.3h29L753,91.1l41.1,104.2h-30.3L735,120.3z"/>
<path class="st1" d="M795.4,7.3h91.3v26.9h-30.9v161.1h-29.5V34.1h-30.9V7.3z"/>
<path class="st1" d="M890.1,195.3V7.3h29.5v70.6h14c14.9,0,25.9,3.9,33.2,11.8c7.3,7.9,10.9,19.4,10.9,34.6v24.4
	c0,15.2-3.6,26.8-10.9,34.6c-7.3,7.9-18.3,11.8-33.2,11.8H890.1z M933.6,168.4c4.7,0,8.2-1.3,10.7-3.8c2.5-2.5,3.8-7.2,3.8-14v-28.2
	c0-6.8-1.3-11.5-3.8-14c-2.5-2.5-6.1-3.8-10.7-3.8h-14v63.6H933.6z M992.2,7.3h29.5v188h-29.5V7.3z"/>
</svg>
