<?xml version="1.0" encoding="utf-8"?>
<!-- Generator: Adobe Illustrator 23.0.1, SVG Export Plug-In . SVG Version: 6.00 Build 0)  -->
<svg version="1.1" id="Layer_1" xmlns="http://www.w3.org/2000/svg" xmlns:xlink="http://www.w3.org/1999/xlink" x="0px" y="0px"
	 width="562px" height="214px" viewBox="0 0 562 214" style="enable-background:new 0 0 562 214;" xml:space="preserve">
<style type="text/css">
	.st0{enable-background:new    ;}
	.st1{fill:#FFFEFE;}
</style>
<g class="st0">
	<path class="st1" d="M10.2,0.6v25.1c0,2.4,0.5,4,1.4,4.9c1,0.9,2.2,1.4,3.9,1.4c1.5,0,2.8-0.4,3.7-1.3c0.9-0.8,1.5-2.3,1.6-4.3V0.6
		H31v65.1H20.8v-25c-0.9,0.3-1.8,0.5-2.6,0.6c-0.9,0.1-1.9,0.1-2.9,0.1c-5,0-8.8-1.4-11.4-4.2S0,30.3,0,25.1V0.6H10.2z"/>
	<path class="st1" d="M35.7,0.6h31.6v9.3H56.6v55.8H46.4V9.9H35.7V0.6z"/>
	<path class="st1" d="M70.9,16.3c0-5.3,1.3-9.3,4-12.1C77.6,1.4,81.4,0,86.4,0s8.9,1.4,11.5,4.2c2.7,2.8,4,6.9,4,12.1v33.8
		c0,5.3-1.3,9.3-4,12.1c-2.7,2.8-6.5,4.2-11.5,4.2s-8.9-1.4-11.5-4.2c-2.7-2.8-4-6.9-4-12.1V16.3z M81.1,50.8c0,2.4,0.5,4,1.4,5
		c1,1,2.2,1.4,3.9,1.4c1.6,0,2.9-0.5,3.9-1.4c1-1,1.4-2.6,1.4-5V15.6c0-2.4-0.5-4-1.4-5c-1-1-2.2-1.4-3.9-1.4
		c-1.6,0-2.9,0.5-3.9,1.4c-1,1-1.4,2.6-1.4,5V50.8z"/>
	<path class="st1" d="M121.9,16.3c0-5.3,1.3-9.3,4-12.1S132.4,0,137.4,0s8.9,1.4,11.5,4.2c2.7,2.8,4,6.9,4,12.1v33.8
		c0,5.3-1.3,9.3-4,12.1c-2.7,2.8-6.5,4.2-11.5,4.2s-8.9-1.4-11.5-4.2c-2.7-2.8-4-6.9-4-12.1V16.3z M132.1,50.8c0,2.4,0.5,4,1.4,5
		c1,1,2.2,1.4,3.9,1.4c1.6,0,2.9-0.5,3.9-1.4c1-1,1.4-2.6,1.4-5V15.6c0-2.4-0.5-4-1.4-5c-1-1-2.2-1.4-3.9-1.4
		c-1.6,0-2.9,0.5-3.9,1.4c-1,1-1.4,2.6-1.4,5V50.8z"/>
	<path class="st1" d="M184,65.7h-10.2V0.6H184v27.9h11.6V0.6H206v65.1h-10.4V37.8H184L184,65.7L184,65.7z"/>
	<path class="st1" d="M246.3,65.7H236l-1.8-11.8h-12.5l-1.8,11.8h-9.4l10.4-65.1h15L246.3,65.7z M223,45.1h9.8l-4.9-32.9L223,45.1z"
		/>
	<path class="st1" d="M280.5,41.5v8.6c0,5.3-1.3,9.3-3.9,12.1c-2.6,2.8-6.4,4.2-11.4,4.2c-5,0-8.8-1.4-11.4-4.2
		c-2.6-2.8-3.9-6.9-3.9-12.1V16.3c0-5.3,1.3-9.3,3.9-12.1c2.6-2.8,6.4-4.2,11.4-4.2c5,0,8.8,1.4,11.4,4.2c2.6,2.8,3.9,6.9,3.9,12.1
		v6.3h-9.7v-7c0-2.4-0.5-4-1.4-5c-1-1-2.2-1.4-3.9-1.4c-1.6,0-2.9,0.5-3.9,1.4c-1,1-1.4,2.6-1.4,5v35.2c0,2.4,0.5,4,1.4,4.9
		c1,0.9,2.2,1.4,3.9,1.4c1.6,0,2.9-0.5,3.9-1.4s1.4-2.6,1.4-4.9v-9.3H280.5z"/>
	<path class="st1" d="M297.7,56.4c0.6,0.1,1.1,0.1,1.8,0.1c0.7,0,1.2,0,1.8,0c1.6,0,3-0.4,4.1-1.2c1.1-0.8,1.7-2.5,1.7-5V0.6h32.3
		v55.8h5.2v16.7h-10.4v-7.4h-26.1v7.4h-10.4V56.4z M317.3,49.6c0,2.7-0.3,5-0.8,6.9h12.7V9.9h-11.9V49.6z"/>
	<path class="st1" d="M351.5,56.4c0.6,0.1,1.1,0.1,1.8,0.1c0.6,0,1.2,0,1.8,0c0.8,0,1.6-0.1,2.3-0.3c0.7-0.2,1.3-0.5,1.9-1
		c0.5-0.5,0.9-1.2,1.2-2.1c0.3-0.9,0.4-2.1,0.4-3.5l-15-49h10.2l11.2,38.1l9.3-38.1h10.2l-13.4,48c-1.2,4.5-2.4,7.9-3.6,10.3
		c-1.2,2.4-2.5,4.1-3.9,5.1c-1.4,1-2.8,1.6-4.4,1.7s-3.3,0.2-5.2,0.2c-0.9,0-1.8,0-2.5,0c-0.7,0-1.5-0.1-2.4-0.2v-9.3H351.5z"/>
	<path class="st1" d="M413.2,46.9l7-46.2h14.2v65.1h-9.7V19.1l-7.1,46.7h-9.7l-7.6-46v46h-8.9V0.6h14.2L413.2,46.9z"/>
	<path class="st1" d="M474.8,65.7h-10.3l-1.8-11.8h-12.5l-1.8,11.8h-9.3l10.4-65.1h15L474.8,65.7z M451.5,45.1h9.8l-4.9-32.9
		L451.5,45.1z"/>
	<path class="st1" d="M489.7,65.7h-10.2V0.6h10.2v27.9h6.1V16.3c0-5.3,1.3-9.3,4-12.1S506.2,0,511.2,0s8.9,1.4,11.5,4.2
		c2.7,2.8,4,6.9,4,12.1v33.8c0,5.3-1.3,9.3-4,12.1c-2.7,2.8-6.5,4.2-11.5,4.2s-8.9-1.4-11.5-4.2c-2.7-2.8-4-6.9-4-12.1V37.8h-6.1
		V65.7z M505.9,50.8c0,2.4,0.5,4,1.4,5c1,1,2.2,1.4,3.9,1.4c1.6,0,2.9-0.5,3.9-1.4c1-1,1.4-2.6,1.4-5V15.6c0-2.4-0.5-4-1.4-5
		c-1-1-2.2-1.4-3.9-1.4c-1.6,0-2.9,0.5-3.9,1.4c-1,1-1.4,2.6-1.4,5V50.8z"/>
	<path class="st1" d="M530.4,0.6H562v9.3h-10.7v55.8h-10.2V9.9h-10.7L530.4,0.6L530.4,0.6z"/>
</g>
<g class="st0">
	<path class="st1" d="M27.1,161.3l-6.4,12.1v40.5H0V82h20.7v57.4L48.2,82h20.3l-28.7,58.7l28.8,73H47.3L27.1,161.3z"/>
	<path class="st1" d="M136.2,100.9h-24.1V181c0,6.6-0.8,12.1-2.5,16.3c-1.7,4.3-3.8,7.6-6.6,10.1c-2.8,2.5-5.9,4.1-9.5,5.1
		c-3.6,1-7.3,1.5-11.2,1.5c-1.9,0-3.6,0-5,0s-3.1-0.1-4.9-0.3v-18.8c1.1,0.1,2.4,0.2,3.6,0.2c1.2,0,2.5,0,3.6,0
		c3.3,0,6.1-0.8,8.4-2.5c2.4-1.7,3.5-5,3.5-10.2V82h65.6v131.8h-20.7L136.2,100.9L136.2,100.9z"/>
	<path class="st1" d="M193.2,213.8h-21.3V82h18.5v78.9L211.7,82h26v131.8h-18.6v-95.4L193.2,213.8z"/>
	<path class="st1" d="M273.5,137.6H302v18.8h-28.5V195h35.8v18.8h-56.5V82h56.5v18.8h-35.8V137.6z"/>
	<path class="st1" d="M342.2,213.8h-20.7V82h20.7v56.5h23.5V82h21.1v131.8h-21.1v-56.5h-23.5V213.8z"/>
	<path class="st1" d="M396.2,82h64v18.8h-21.6v112.9h-20.7V100.9h-21.6L396.2,82L396.2,82z"/>
	<path class="st1" d="M469.8,213.8V82h20.7v49.4h9.8c10.4,0,18.2,2.8,23.3,8.3c5,5.5,7.6,13.6,7.6,24.3v17.1
		c0,10.6-2.6,18.8-7.6,24.3c-5,5.5-12.9,8.3-23.3,8.3h-30.5V213.8z M500.2,195c3.3,0,5.8-0.9,7.5-2.7c1.8-1.8,2.7-5,2.7-9.7v-19.8
		c0-4.8-0.9-8.1-2.7-9.7c-1.8-1.8-4.3-2.7-7.5-2.7h-9.8V195L500.2,195L500.2,195z M541.3,82H562v131.8h-20.7V82z"/>
</g>
</svg>
