<?xml version="1.0" encoding="utf-8"?>
<!-- Generator: Adobe Illustrator 21.1.0, SVG Export Plug-In . SVG Version: 6.00 Build 0)  -->
<svg version="1.1" id="Слой_2" xmlns="http://www.w3.org/2000/svg" xmlns:xlink="http://www.w3.org/1999/xlink" x="0px" y="0px"
	 width="593px" height="167.7px" viewBox="0 0 593 167.7" style="enable-background:new 0 0 593 167.7;" xml:space="preserve">
<style type="text/css">
	.st0{fill:#FFFFFF;}
</style>
<g>
	<path class="st0" d="M20.2,53L26,14.4h11.9v54.3h-8.1V29.8l-5.9,38.9h-8.1L9.5,30.3v38.4H2V14.4h11.9L20.2,53z"/>
	<path class="st0" d="M68.2,68.7h-8.6l-1.5-9.9H47.6l-1.5,9.9h-7.8L47,14.4h12.5L68.2,68.7z M48.7,51.5h8.2L52.8,24L48.7,51.5z"/>
	<path class="st0" d="M93.4,48.5v7.2c0,8.7-4.3,13.7-12.7,13.7c-8.4,0-12.7-5-12.7-13.7V27.5c0-8.7,4.3-13.7,12.7-13.7
		c8.4,0,12.7,5,12.7,13.7v5.3h-8.1v-5.8c0-3.9-1.7-5.4-4.4-5.4c-2.7,0-4.4,1.5-4.4,5.4v29.3c0,3.9,1.7,5.3,4.4,5.3
		c2.7,0,4.4-1.4,4.4-5.3v-7.8H93.4z"/>
	<path class="st0" d="M92.6,14.4H119v7.8h-8.9v46.5h-8.5V22.2h-8.9V14.4z"/>
	<path class="st0" d="M127.8,37.3h11.7v7.8h-11.7V61h14.7v7.8h-23.3V14.4h23.3v7.8h-14.7V37.3z"/>
	<path class="st0" d="M169.6,27.8v7.1c0,8.7-4.2,13.4-12.7,13.4h-4v20.4h-8.5V14.4h12.6C165.4,14.4,169.6,19.2,169.6,27.8z
		 M152.8,22.2v18.4h4c2.7,0,4.2-1.2,4.2-5.1v-8.1c0-3.9-1.5-5.1-4.2-5.1H152.8z"/>
	<path class="st0" d="M178.6,68.7V14.4h23.9v7.8h-15.4v13.9h5c8.5,0,12.9,4.7,12.9,13.4v5.8c0,8.7-4.3,13.4-12.9,13.4H178.6z
		 M192.1,61c2.7,0,4.3-1.2,4.3-5.1v-6.9c0-3.9-1.6-5.1-4.3-5.1h-5V61H192.1z"/>
	<path class="st0" d="M234.9,68.7h-8.6l-1.5-9.9h-10.5l-1.5,9.9H205l8.7-54.3h12.5L234.9,68.7z M215.4,51.5h8.2L219.5,24L215.4,51.5
		z"/>
	<path class="st0" d="M243.8,68.7h-8.5V14.4h8.5v23.3h9.7V14.4h8.7v54.3h-8.7V45.5h-9.7V68.7z"/>
	<path class="st0" d="M273.5,68.7h-8.5V14.4h8.5v23.3h9.7V14.4h8.7v54.3h-8.7V45.5h-9.7V68.7z"/>
	<path class="st0" d="M303.1,37.3h11.7v7.8h-11.7V61h14.7v7.8h-23.3V14.4h23.3v7.8h-14.7V37.3z"/>
	<path class="st0" d="M344.9,27.8v7.1c0,8.7-4.2,13.4-12.7,13.4h-4v20.4h-8.5V14.4h12.6C340.7,14.4,344.9,19.2,344.9,27.8z
		 M328.1,22.2v18.4h4c2.7,0,4.2-1.2,4.2-5.1v-8.1c0-3.9-1.5-5.1-4.2-5.1H328.1z"/>
	<path class="st0" d="M369.2,38.5h10.4v6h-10.4v10.6h-6V44.6h-10.4v-6h10.4V28.1h6V38.5z"/>
	<path class="st0" d="M414.9,27.8v7.1c0,8.7-4.2,13.4-12.7,13.4h-4v20.4h-8.5V14.4h12.6C410.7,14.4,414.9,19.2,414.9,27.8z
		 M398.2,22.2v18.4h4c2.7,0,4.2-1.2,4.2-5.1v-8.1c0-3.9-1.5-5.1-4.2-5.1H398.2z"/>
	<path class="st0" d="M423.9,37.3h11.7v7.8h-11.7V61h14.7v7.8h-23.3V14.4h23.3v7.8h-14.7V37.3z"/>
	<path class="st0" d="M465.2,48.5v7.2c0,8.7-4.3,13.7-12.7,13.7c-8.4,0-12.7-5-12.7-13.7V27.5c0-8.7,4.3-13.7,12.7-13.7
		c8.4,0,12.7,5,12.7,13.7v5.3h-8.1v-5.8c0-3.9-1.7-5.4-4.4-5.4c-2.7,0-4.4,1.5-4.4,5.4v29.3c0,3.9,1.7,5.3,4.4,5.3
		c2.7,0,4.4-1.4,4.4-5.3v-7.8H465.2z"/>
	<path class="st0" d="M494.5,68.7h-8.6l-1.5-9.9H474l-1.5,9.9h-7.8l8.7-54.3h12.5L494.5,68.7z M475,51.5h8.2L479.1,24L475,51.5z"/>
	<path class="st0" d="M503.7,68.7H495V14.4h7.6v34.4l3.1-11.9l7-22.4h9.4v54.3h-7.7V30.5l-3.5,13.3L503.7,68.7z M512.5,2.3
		c-0.2,2.9-1.6,3.6-3.9,3.6c-2.2,0-3.4-0.7-3.6-3.6h-5.3c0.2,5.3,2.9,8.6,8.9,8.6c6,0,9.1-3.3,9.1-8.6H512.5z"/>
	<path class="st0" d="M541.2,27.8c0-4.9-1.7-6.2-4.4-6.2c-2.7,0-4.5,1.5-4.5,5.4v4.4h-7.8v-4c0-8.7,4.2-13.5,12.6-13.5
		c8.4,0,12.7,5,12.7,13.7v1.4c0,5.8-1.9,9.5-6,11.2c4.3,1.9,6,5.9,6,11.4v4.3c0,8.7-4.3,13.7-12.7,13.7c-8.4,0-12.7-5-12.7-13.7v-6
		h8.1v6.5c0,3.9,1.7,5.4,4.4,5.4c2.7,0,4.4-1.3,4.4-6.1v-4.3c0-5-1.7-6.9-5.6-6.9h-2.1v-7.8h2.6c3.2,0,5.1-1.4,5.1-5.7V27.8z"/>
	<path class="st0" d="M552,68.7V14.4h8.5v20.4h4c8.5,0,12.7,4.7,12.7,13.4v7.1c0,8.7-4.2,13.4-12.7,13.4H552z M564.5,61
		c2.7,0,4.2-1.2,4.2-5.1v-8.1c0-3.9-1.5-5.1-4.2-5.1h-4V61H564.5z M582.1,68.7V14.4h8.5v54.3H582.1z"/>
</g>
<g>
	<path class="st0" d="M24,115h14.2v8.3H24v14.5h-8.3v-14.5H1.4V115h14.2v-14.3H24V115z"/>
	<path class="st0" d="M52,156.3H40.3V82h36.9v74.3H65.3V92.6H52V156.3z"/>
	<path class="st0" d="M79.9,99.8c0-11.9,6.3-18.7,17.7-18.7s17.7,6.8,17.7,18.7v38.7c0,11.9-6.3,18.7-17.7,18.7s-17.7-6.8-17.7-18.7
		V99.8z M91.6,139.2c0,5.3,2.3,7.3,6.1,7.3s6.1-2,6.1-7.3V99.1c0-5.3-2.3-7.3-6.1-7.3s-6.1,2-6.1,7.3V139.2z"/>
	<path class="st0" d="M151.9,166.3v-10h-25v10h-11.4v-20.4h4.6c2-2.5,2.7-5.3,2.9-9.7l2.7-54.3h32.7v63.9h5.1v20.4H151.9z
		 M134.5,136c-0.3,5.6-1.4,8.1-3.3,9.9h15.3V92.6h-9.9L134.5,136z"/>
	<path class="st0" d="M165.3,156.3V82h30.8v10.6H177v63.7H165.3z"/>
	<path class="st0" d="M198.2,99.8c0-11.9,6.3-18.7,17.7-18.7s17.7,6.8,17.7,18.7v38.7c0,11.9-6.3,18.7-17.7,18.7
		s-17.7-6.8-17.7-18.7V99.8z M209.9,139.2c0,5.3,2.3,7.3,6.1,7.3s6.1-2,6.1-7.3V99.1c0-5.3-2.3-7.3-6.1-7.3s-6.1,2-6.1,7.3V139.2z"
		/>
	<path class="st0" d="M233.1,82h36.1v10.6H257v63.7h-11.7V92.6h-12.2V82z"/>
	<path class="st0" d="M268.5,99.8c0-11.9,6.3-18.7,17.7-18.7c11.5,0,17.7,6.8,17.7,18.7v38.7c0,11.9-6.3,18.7-17.7,18.7
		c-11.5,0-17.7-6.8-17.7-18.7V99.8z M280.2,139.2c0,5.3,2.3,7.3,6.1,7.3c3.7,0,6.1-2,6.1-7.3V99.1c0-5.3-2.3-7.3-6.1-7.3
		c-3.7,0-6.1,2-6.1,7.3V139.2z"/>
	<path class="st0" d="M341.7,99.1v2.7c0,7.6-2.3,12.5-7.5,15c6.3,2.4,8.7,8.1,8.7,15.9v6.1c0,11.5-6.1,17.6-17.7,17.6h-18.4V82h17.6
		C336.5,82,341.7,87.6,341.7,99.1z M318.4,92.6v19.6h4.6c4.4,0,7-1.9,7-7.9v-4.1c0-5.3-1.8-7.6-5.9-7.6H318.4z M318.4,122.9v22.8
		h6.7c3.9,0,6.1-1.8,6.1-7.3v-6.5c0-6.9-2.2-9-7.5-9H318.4z"/>
	<path class="st0" d="M360.4,126.7l-3.6,6.8v22.8h-11.7V82h11.7v32.4L372.1,82h11.7l-16.2,33.1l16.2,41.2h-12L360.4,126.7z"/>
	<path class="st0" d="M422.1,156.3h-11.8l-2-13.5h-14.3l-2,13.5h-10.7L393.1,82h17.1L422.1,156.3z M395.4,132.7h11.3l-5.6-37.6
		L395.4,132.7z"/>
	<path class="st0" d="M446.1,156.3h-11.7V82h36.9v74.3h-11.9V92.6h-13.3V156.3z"/>
	<path class="st0" d="M474,99.8c0-11.9,6.3-18.7,17.7-18.7c11.5,0,17.7,6.8,17.7,18.7v38.7c0,11.9-6.3,18.7-17.7,18.7
		c-11.5,0-17.7-6.8-17.7-18.7V99.8z M485.7,139.2c0,5.3,2.3,7.3,6.1,7.3c3.7,0,6.1-2,6.1-7.3V99.1c0-5.3-2.3-7.3-6.1-7.3
		c-3.7,0-6.1,2-6.1,7.3V139.2z"/>
	<path class="st0" d="M520.5,82h36.1v10.6h-12.2v63.7h-11.7V92.6h-12.2V82z"/>
	<path class="st0" d="M553.6,82h36.1v10.6h-12.2v63.7h-11.7V92.6h-12.2V82z"/>
</g>
</svg>
