<?xml version="1.0" encoding="utf-8"?>
<!-- Generator: Adobe Illustrator 21.1.0, SVG Export Plug-In . SVG Version: 6.00 Build 0)  -->
<svg version="1.1" id="Слой_2" xmlns="http://www.w3.org/2000/svg" xmlns:xlink="http://www.w3.org/1999/xlink" x="0px" y="0px"
	 width="593px" height="54.7px" viewBox="0 0 593 54.7" style="enable-background:new 0 0 593 54.7;" xml:space="preserve">
<style type="text/css">
	.st0{fill:#FF9700;}
</style>
<g>
	<path class="st0" d="M11.9,28.9L9.7,33v13.9H2.6V1.6h7.1v19.7L19,1.6h7.1l-9.9,20.2l9.9,25.1h-7.3L11.9,28.9z"/>
	<path class="st0" d="M25.9,12.5c0-7.2,3.8-11.4,10.8-11.4c7,0,10.8,4.1,10.8,11.4V36c0,7.2-3.8,11.4-10.8,11.4
		c-7,0-10.8-4.1-10.8-11.4V12.5z M33,36.5c0,3.2,1.4,4.5,3.7,4.5c2.3,0,3.7-1.2,3.7-4.5V12c0-3.2-1.4-4.5-3.7-4.5
		C34.4,7.6,33,8.8,33,12V36.5z"/>
	<path class="st0" d="M56.3,46.9h-7.1V1.6h7.1V21h8.1V1.6h7.2v45.3h-7.2V27.5h-8.1V46.9z"/>
	<path class="st0" d="M71.8,1.6h22v6.5h-7.4v38.8h-7.1V8.1h-7.4V1.6z"/>
	<path class="st0" d="M115.1,12.8v5.9c0,7.2-3.5,11.2-10.6,11.2h-3.4v17H94V1.6h10.5C111.6,1.6,115.1,5.6,115.1,12.8z M101.1,8.1
		v15.3h3.4c2.3,0,3.5-1,3.5-4.3v-6.8c0-3.2-1.2-4.3-3.5-4.3H101.1z"/>
	<path class="st0" d="M114.9,12.5c0-7.2,3.8-11.4,10.8-11.4c7,0,10.8,4.1,10.8,11.4V36c0,7.2-3.8,11.4-10.8,11.4
		c-7,0-10.8-4.1-10.8-11.4V12.5z M122,36.5c0,3.2,1.4,4.5,3.7,4.5c2.3,0,3.7-1.2,3.7-4.5V12c0-3.2-1.4-4.5-3.7-4.5
		c-2.3,0-3.7,1.2-3.7,4.5V36.5z"/>
	<path class="st0" d="M136.2,40.5c3.2,0,4.3-0.5,4.4-4.7l1.2-34.2h20.1v45.3h-7.2V8.1h-6.2l-0.8,27.4c-0.3,8.3-3.2,11.5-10.3,11.5
		h-1.1V40.5z"/>
	<path class="st0" d="M164.4,46.9V1.6h7.1v17h3.4c7.1,0,10.6,3.9,10.6,11.2v5.9c0,7.2-3.5,11.2-10.6,11.2H164.4z M174.8,40.4
		c2.3,0,3.5-1,3.5-4.3v-6.8c0-3.2-1.2-4.3-3.5-4.3h-3.4v15.3H174.8z"/>
	<path class="st0" d="M203.2,28.9L201,33v13.9h-7.1V1.6h7.1v19.7l9.3-19.7h7.1l-9.9,20.2l9.9,25.1h-7.3L203.2,28.9z"/>
	<path class="st0" d="M240.8,46.9h-7.2l-1.2-8.2h-8.7l-1.2,8.2h-6.5l7.2-45.3h10.4L240.8,46.9z M224.6,32.5h6.9L228,9.6L224.6,32.5z
		"/>
	<path class="st0" d="M262.8,1.6v45.3h-7.1V28.7c-1.6,1.7-4.1,2.5-6.1,2.5c-5.8,0-8.9-4.2-8.9-10.4V1.6h7.1v18.6
		c0,3,1.9,4.5,4.1,4.5s3.7-1.6,3.7-4.7V1.6H262.8z"/>
	<path class="st0" d="M272.2,20.7h9.8v6.5h-9.8v13.3h12.3v6.5h-19.4V1.6h19.4v6.5h-12.3V20.7z"/>
	<path class="st0" d="M306.7,30v6c0,7.2-3.6,11.4-10.6,11.4c-7,0-10.6-4.1-10.6-11.4V12.5c0-7.2,3.6-11.4,10.6-11.4
		c7,0,10.6,4.1,10.6,11.4v4.4h-6.7V12c0-3.2-1.4-4.5-3.7-4.5c-2.3,0-3.7,1.2-3.7,4.5v24.5c0,3.2,1.4,4.4,3.7,4.4
		c2.3,0,3.7-1.2,3.7-4.4V30H306.7z"/>
	<path class="st0" d="M306,1.6h22v6.5h-7.4v38.8h-7.1V8.1H306V1.6z"/>
	<path class="st0" d="M349.5,12v1.6c0,4.7-1.4,7.6-4.6,9.1c3.8,1.5,5.3,4.9,5.3,9.7v3.7c0,7-3.7,10.7-10.8,10.7h-11.2V1.6h10.7
		C346.3,1.6,349.5,5.1,349.5,12z M335.3,8.1v12h2.8c2.7,0,4.3-1.2,4.3-4.8v-2.5c0-3.2-1.1-4.7-3.6-4.7H335.3z M335.3,26.5v13.9h4.1
		c2.4,0,3.7-1.1,3.7-4.5V32c0-4.2-1.4-5.5-4.6-5.5H335.3z"/>
	<path class="st0" d="M374.6,46.9h-7.2l-1.2-8.2h-8.7l-1.2,8.2h-6.5l7.2-45.3h10.4L374.6,46.9z M358.3,32.5h6.9l-3.4-22.9
		L358.3,32.5z"/>
	<path class="st0" d="M403.3,12v1.6c0,4.7-1.4,7.6-4.6,9.1c3.8,1.5,5.3,4.9,5.3,9.7v3.7c0,7-3.7,10.7-10.8,10.7h-11.2V1.6h10.7
		C400.2,1.6,403.3,5.1,403.3,12z M389.2,8.1v12h2.8c2.7,0,4.3-1.2,4.3-4.8v-2.5c0-3.2-1.1-4.7-3.6-4.7H389.2z M389.2,26.5v13.9h4.1
		c2.4,0,3.7-1.1,3.7-4.5V32c0-4.2-1.4-5.5-4.6-5.5H389.2z"/>
	<path class="st0" d="M419.6,46.9h-7.1V1.6H435v45.3h-7.2V8.1h-8.1V46.9z"/>
	<path class="st0" d="M436.7,12.5c0-7.2,3.8-11.4,10.8-11.4c7,0,10.8,4.1,10.8,11.4V36c0,7.2-3.8,11.4-10.8,11.4
		c-7,0-10.8-4.1-10.8-11.4V12.5z M443.8,36.5c0,3.2,1.4,4.5,3.7,4.5c2.3,0,3.7-1.2,3.7-4.5V12c0-3.2-1.4-4.5-3.7-4.5
		c-2.3,0-3.7,1.2-3.7,4.5V36.5z"/>
	<path class="st0" d="M480.5,53v-6.1h-15.2V53h-6.9V40.6h2.8c1.2-1.6,1.6-3.2,1.7-5.9l1.6-33.1h19.9v38.9h3.1V53H480.5z M469.9,34.5
		c-0.2,3.4-0.8,4.9-2,6h9.3V8.1h-6L469.9,34.5z"/>
	<path class="st0" d="M511.6,46.9h-7.2l-1.2-8.2h-8.7l-1.2,8.2h-6.5L494,1.6h10.4L511.6,46.9z M495.4,32.5h6.9l-3.4-22.9L495.4,32.5
		z"/>
	<path class="st0" d="M533.1,12.8v5.9c0,7.2-3.5,11.2-10.6,11.2h-3.4v17H512V1.6h10.5C529.6,1.6,533.1,5.6,533.1,12.8z M519.1,8.1
		v15.3h3.4c2.3,0,3.5-1,3.5-4.3v-6.8c0-3.2-1.2-4.3-3.5-4.3H519.1z"/>
	<path class="st0" d="M532.9,12.5c0-7.2,3.8-11.4,10.8-11.4c7,0,10.8,4.1,10.8,11.4V36c0,7.2-3.8,11.4-10.8,11.4
		c-7,0-10.8-4.1-10.8-11.4V12.5z M540,36.5c0,3.2,1.4,4.5,3.7,4.5c2.3,0,3.7-1.2,3.7-4.5V12c0-3.2-1.4-4.5-3.7-4.5
		c-2.3,0-3.7,1.2-3.7,4.5V36.5z"/>
	<path class="st0" d="M565.5,28.9l-2.2,4.1v13.9h-7.1V1.6h7.1v19.7l9.3-19.7h7.1l-9.9,20.2l9.9,25.1h-7.3L565.5,28.9z"/>
	<path class="st0" d="M581,36.9l-0.9-16.4V1.6h7.1v18.9l-0.9,16.4H581z M587,40v6.9h-6.9V40H587z"/>
</g>
</svg>
