<?xml version="1.0" encoding="utf-8"?>
<!-- Generator: Adobe Illustrator 22.0.1, SVG Export Plug-In . SVG Version: 6.00 Build 0)  -->
<svg version="1.1" id="Layer_1" xmlns="http://www.w3.org/2000/svg" xmlns:xlink="http://www.w3.org/1999/xlink" x="0px" y="0px"
	 viewBox="0 0 545 91" style="enable-background:new 0 0 545 91;" xml:space="preserve">
<style type="text/css">
	.st0{enable-background:new    ;}
	.st1{fill:#FFFFFF;}
</style>
<g class="st0">
	<path class="st1" d="M14.7,1.8v34.2c0,3.2,0.7,5.4,2,6.7c1.3,1.3,3.1,1.9,5.2,1.9c2.1,0,3.8-0.6,5.1-1.7c1.3-1.1,2-3.1,2.1-5.9V1.8
		H43v88.6H29.1v-34c-1.2,0.4-2.4,0.7-3.6,0.8c-1.2,0.1-2.6,0.2-4,0.2c-6.8,0-12-1.9-15.5-5.8C2.5,47.7,0.8,42.2,0.8,35V1.8H14.7z"/>
	<path class="st1" d="M67.1,39.1h19.1v12.7H67.1v25.9h24v12.7H53.1V1.8h37.9v12.7h-24V39.1z"/>
	<path class="st1" d="M128.9,64.7l9.5-62.9h19.3v88.6h-13.2V26.8L135,90.3h-13.2l-10.4-62.6v62.6H99.3V1.8h19.3L128.9,64.7z"/>
	<path class="st1" d="M201.3,90.3h-13.9V1.8h43.9v88.6h-14.2V14.4h-15.8V90.3z"/>
	<path class="st1" d="M240.2,23c0-7.2,1.8-12.7,5.4-16.5c3.6-3.8,8.9-5.8,15.7-5.8c6.8,0,12.1,1.9,15.7,5.8
		c3.6,3.8,5.4,9.3,5.4,16.5v46.1c0,7.2-1.8,12.7-5.4,16.5c-3.6,3.8-8.9,5.8-15.7,5.8c-6.8,0-12.1-1.9-15.7-5.8
		c-3.6-3.8-5.4-9.3-5.4-16.5V23z M254.1,70c0,3.2,0.7,5.5,2,6.8c1.3,1.3,3.1,2,5.2,2c2.2,0,3.9-0.7,5.2-2c1.3-1.3,2-3.6,2-6.8V22.1
		c0-3.2-0.7-5.5-2-6.8c-1.3-1.3-3.1-2-5.2-2c-2.2,0-3.9,0.7-5.2,2c-1.3,1.3-2,3.6-2,6.8V70z"/>
	<path class="st1" d="M320.8,64.7l9.5-62.9h19.3v88.6h-13.2V26.8l-9.6,63.5h-13.2l-10.4-62.6v62.6h-12.1V1.8h19.3L320.8,64.7z"/>
	<path class="st1" d="M358.5,23c0-7.2,1.8-12.7,5.4-16.5c3.6-3.8,8.9-5.8,15.7-5.8c6.8,0,12.1,1.9,15.7,5.8
		c3.6,3.8,5.4,9.3,5.4,16.5v46.1c0,7.2-1.8,12.7-5.4,16.5c-3.6,3.8-8.9,5.8-15.7,5.8c-6.8,0-12.1-1.9-15.7-5.8
		c-3.6-3.8-5.4-9.3-5.4-16.5V23z M372.4,70c0,3.2,0.7,5.5,2,6.8c1.3,1.3,3.1,2,5.2,2c2.2,0,3.9-0.7,5.2-2c1.3-1.3,2-3.6,2-6.8V22.1
		c0-3.2-0.7-5.5-2-6.8c-1.3-1.3-3.1-2-5.2-2c-2.2,0-3.9,0.7-5.2,2c-1.3,1.3-2,3.6-2,6.8V70z"/>
	<path class="st1" d="M420.3,1.8v34.2c0,3.2,0.7,5.4,2,6.7c1.3,1.3,3.1,1.9,5.2,1.9c2.1,0,3.8-0.6,5.1-1.7s2-3.1,2.1-5.9V1.8h13.9
		v88.6h-13.9v-34c-1.2,0.4-2.4,0.7-3.6,0.8c-1.2,0.1-2.6,0.2-4,0.2c-6.8,0-12-1.9-15.5-5.8c-3.5-3.8-5.2-9.3-5.2-16.5V1.8H420.3z"/>
	<path class="st1" d="M458.8,90.3V1.8h13.9V35h6.6c7,0,12.2,1.9,15.6,5.6c3.4,3.7,5.1,9.2,5.1,16.3v11.5c0,7.2-1.7,12.6-5.1,16.3
		c-3.4,3.7-8.6,5.6-15.6,5.6H458.8z M479.3,77.7c2.2,0,3.9-0.6,5.1-1.8c1.2-1.2,1.8-3.4,1.8-6.6V56.1c0-3.2-0.6-5.4-1.8-6.6
		c-1.2-1.2-2.9-1.8-5.1-1.8h-6.6v30H479.3z"/>
	<path class="st1" d="M516.4,70.7c-0.5-1.5-0.8-3.3-0.8-5.4c0-3.2,0.4-6,1.1-8.4c0.8-2.4,1.7-4.5,2.8-6.5c1.1-2,2.3-3.9,3.7-5.7
		c1.3-1.8,2.6-3.8,3.7-5.9c1.1-2.1,2-4.5,2.8-7.1c0.8-2.7,1.1-5.8,1.1-9.6c0-3.2-0.6-5.5-1.8-6.8c-1.2-1.3-2.9-2-5.1-2
		c-2.2,0-3.9,0.7-5.1,2c-1.2,1.3-1.8,3.6-1.8,6.8v9.6h-13.2V23c0-7.2,1.7-12.7,5.1-16.5c3.4-3.8,8.5-5.8,15.4-5.8s11.9,1.9,15.4,5.8
		c3.4,3.8,5.1,9.3,5.1,16.5c0,3.9-0.4,7.2-1.2,10.1c-0.8,2.8-1.8,5.4-3,7.7c-1.2,2.3-2.6,4.4-4,6.3c-1.4,1.9-2.8,3.8-4,5.6
		c-1.2,1.9-2.2,3.8-3,5.9c-0.8,2.1-1.2,4.5-1.2,7.2c0,1.9,0.2,3.5,0.5,4.9H516.4z M529.2,76.9v13.4h-13.4V76.9H529.2z"/>
</g>
</svg>
