<?xml version="1.0" encoding="utf-8"?>
<!-- Generator: Adobe Illustrator 22.0.1, SVG Export Plug-In . SVG Version: 6.00 Build 0)  -->
<svg version="1.1" id="Layer_1" xmlns="http://www.w3.org/2000/svg" xmlns:xlink="http://www.w3.org/1999/xlink" x="0px" y="0px"
	 viewBox="0 0 586 97" style="enable-background:new 0 0 586 97;" xml:space="preserve">
<style type="text/css">
	.st0{enable-background:new    ;}
	.st1{fill:#FF9700;}
</style>
<g class="st0">
	<path class="st1" d="M15.3,95.9H0.4V1.4h39.3v13.5H15.3V95.9z"/>
	<path class="st1" d="M45.1,24.1c0-7.6,1.9-13.5,5.8-17.6c3.9-4.1,9.5-6.1,16.7-6.1c7.3,0,12.9,2,16.7,6.1c3.9,4.1,5.8,10,5.8,17.6
		v49.1c0,7.7-1.9,13.5-5.8,17.6C80.5,95,75,97,67.7,97c-7.3,0-12.9-2-16.7-6.1c-3.9-4.1-5.8-10-5.8-17.6V24.1z M60,74.2
		c0,3.4,0.7,5.8,2.1,7.2c1.4,1.4,3.3,2.1,5.6,2.1c2.3,0,4.2-0.7,5.6-2.1c1.4-1.4,2.1-3.8,2.1-7.2v-51c0-3.4-0.7-5.8-2.1-7.2
		c-1.4-1.4-3.3-2.1-5.6-2.1c-2.3,0-4.2,0.7-5.6,2.1c-1.4,1.4-2.1,3.8-2.1,7.2V74.2z"/>
	<path class="st1" d="M121.5,1.4c7.5,0,13,2,16.7,5.9c3.6,4,5.5,9.8,5.5,17.4v12.3c0,7.7-1.8,13.5-5.5,17.4c-3.6,4-9.2,5.9-16.7,5.9
		h-7v35.5H99.7V1.4H121.5z M114.5,14.9v32h7c2.3,0,4.1-0.6,5.4-1.9c1.3-1.3,1.9-3.6,1.9-7V23.9c0-3.4-0.6-5.8-1.9-7
		c-1.3-1.3-3.1-1.9-5.4-1.9H114.5z"/>
	<path class="st1" d="M147.7,95.9c0.7-1.8,1.2-3.6,1.3-5.3c0.2-1.8,0.3-3.8,0.3-6.1V69.9c0-4.9,0.7-9.2,2.1-12.6
		c1.4-3.5,4-6,7.8-7.5c-6.5-3.1-9.7-9.5-9.7-19.2v-7.4c0-7.3,1.7-12.7,5.2-16.3c3.5-3.6,9.1-5.4,16.8-5.4h22.4v94.5H179V57.5h-5.1
		c-3.4,0-5.9,0.9-7.4,2.7c-1.5,1.8-2.3,4.9-2.3,9.3v14.8c0,1.9,0,3.5-0.1,4.7c0,1.3-0.1,2.3-0.3,3.1c-0.1,0.8-0.3,1.5-0.5,2
		c-0.2,0.5-0.4,1.1-0.5,1.8H147.7z M171.9,14.9c-2.6,0-4.5,0.8-5.7,2.3c-1.2,1.5-1.8,4-1.8,7.4V34c0,3.8,0.8,6.4,2.4,7.8
		c1.6,1.4,3.8,2.2,6.5,2.2h5.8v-29H171.9z"/>
	<path class="st1" d="M200.6,1.4h45.9v13.5H231v81h-14.9v-81h-15.5V1.4z"/>
	<path class="st1" d="M317.1,60.7v12.6c0,7.7-1.9,13.5-5.6,17.6C307.8,95,302.3,97,295,97s-12.8-2-16.5-6.1
		c-3.7-4.1-5.6-10-5.6-17.6V24.1c0-7.6,1.9-13.5,5.6-17.6c3.7-4.1,9.2-6.1,16.5-6.1s12.8,2,16.5,6.1c3.7,4.1,5.6,10,5.6,17.6v9.2
		h-14V23.2c0-3.4-0.7-5.8-2.1-7.2c-1.4-1.4-3.3-2.1-5.6-2.1c-2.3,0-4.2,0.7-5.6,2.1c-1.4,1.4-2.1,3.8-2.1,7.2v51
		c0,3.4,0.7,5.8,2.1,7.2c1.4,1.3,3.3,2,5.6,2c2.3,0,4.2-0.7,5.6-2c1.4-1.3,2.1-3.7,2.1-7.2V60.7H317.1z"/>
	<path class="st1" d="M348.5,1.4c7.5,0,13,2,16.7,5.9c3.6,4,5.5,9.8,5.5,17.4v12.3c0,7.7-1.8,13.5-5.5,17.4c-3.6,4-9.2,5.9-16.7,5.9
		h-7v35.5h-14.9V1.4H348.5z M341.4,14.9v32h7c2.3,0,4.1-0.6,5.4-1.9c1.3-1.3,1.9-3.6,1.9-7V23.9c0-3.4-0.6-5.8-1.9-7
		c-1.3-1.3-3.1-1.9-5.4-1.9H341.4z"/>
	<path class="st1" d="M376,24.1c0-7.6,1.9-13.5,5.8-17.6c3.9-4.1,9.5-6.1,16.7-6.1s12.9,2,16.7,6.1c3.9,4.1,5.8,10,5.8,17.6v49.1
		c0,7.7-1.9,13.5-5.8,17.6c-3.9,4.1-9.5,6.1-16.7,6.1s-12.9-2-16.7-6.1c-3.9-4.1-5.8-10-5.8-17.6V24.1z M390.9,74.2
		c0,3.4,0.7,5.8,2.1,7.2c1.4,1.4,3.3,2.1,5.6,2.1c2.3,0,4.2-0.7,5.6-2.1c1.4-1.4,2.1-3.8,2.1-7.2v-51c0-3.4-0.7-5.8-2.1-7.2
		c-1.4-1.4-3.3-2.1-5.6-2.1c-2.3,0-4.2,0.7-5.6,2.1c-1.4,1.4-2.1,3.8-2.1,7.2V74.2z"/>
	<path class="st1" d="M450,58.3l-4.6,8.6v29h-14.8V1.4h14.8v41.2l19.7-41.2h14.6L459,43.6l20.7,52.4h-15.3L450,58.3z"/>
	<path class="st1" d="M501.7,95.9h-15.3V1.4h13.2V58l15.3-56.6h18.6v94.5h-13.4V27.5L501.7,95.9z"/>
	<path class="st1" d="M555.1,75c-0.5-1.6-0.8-3.6-0.8-5.8c0-3.4,0.4-6.4,1.2-8.9c0.8-2.5,1.8-4.8,3-7c1.2-2.1,2.5-4.1,3.9-6.1
		c1.4-1.9,2.7-4,3.9-6.3c1.2-2.2,2.2-4.8,3-7.6c0.8-2.8,1.2-6.2,1.2-10.2c0-3.4-0.7-5.8-2-7.2c-1.3-1.4-3.1-2.1-5.5-2.1
		c-2.3,0-4.2,0.7-5.5,2.1c-1.3,1.4-2,3.8-2,7.2v10.3h-14v-9.3c0-7.6,1.8-13.5,5.5-17.6c3.6-4.1,9.1-6.1,16.4-6.1s12.8,2,16.4,6.1
		c3.6,4.1,5.5,10,5.5,17.6c0,4.1-0.4,7.7-1.3,10.7c-0.9,3-1.9,5.7-3.2,8.2c-1.3,2.4-2.7,4.7-4.3,6.7c-1.5,2-2.9,4-4.3,6
		c-1.3,2-2.4,4.1-3.2,6.3c-0.9,2.3-1.3,4.8-1.3,7.7c0,2,0.2,3.7,0.5,5.3H555.1z M568.8,81.6v14.3h-14.3V81.6H568.8z"/>
</g>
</svg>
