<?xml version="1.0" encoding="utf-8"?>
<!-- Generator: Adobe Illustrator 23.0.1, SVG Export Plug-In . SVG Version: 6.00 Build 0)  -->
<svg version="1.1" id="Layer_1" xmlns="http://www.w3.org/2000/svg" xmlns:xlink="http://www.w3.org/1999/xlink" x="0px" y="0px"
	 width="585px" height="52px" viewBox="0 0 585 52" style="enable-background:new 0 0 585 52;" xml:space="preserve">
<style type="text/css">
	.st0{enable-background:new    ;}
	.st1{fill:#FFFFFF;}
</style>
<g class="st0">
	<path class="st1" d="M8.4,19.6h3.7c4,0,6.9,1.1,8.9,3.2s3,5.2,3,9.3v6.5c0,4.1-1,7.2-2.9,9.3s-4.9,3.2-8.9,3.2H0.5V0.7h20.9v7.2
		h-13V19.6z M12.2,43.9c1.2,0,2.2-0.3,2.9-1c0.7-0.7,1-1.9,1-3.7v-7.6c0-1.8-0.3-3.1-1-3.7c-0.7-0.7-1.6-1-2.9-1H8.4v17H12.2z"/>
	<path class="st1" d="M54.2,51.1h-8L44.8,42h-9.7l-1.4,9.1h-7.3l8.1-50.3h11.6L54.2,51.1z M36.1,35.1h7.6L39.9,9.6L36.1,35.1z"/>
	<path class="st1" d="M65.7,51.1h-7.9V0.7h7.9v21.6h9V0.7h8.1V51h-8.1V29.5h-9V51.1z"/>
	<path class="st1" d="M96.4,51.1h-7.9V0.7h7.9v21.6h9V0.7h8.1V51h-8.1V29.5h-9V51.1z"/>
	<path class="st1" d="M127.2,21.9H138v7.2h-10.9v14.7h13.7V51h-21.6V0.7h21.6v7.2h-13.7L127.2,21.9L127.2,21.9z"/>
	<path class="st1" d="M157.2,0.7c4,0,6.9,1.1,8.9,3.2C168,6,169,9.1,169,13.2v6.5c0,4.1-1,7.2-2.9,9.3s-4.9,3.2-8.9,3.2h-3.7v18.9
		h-7.9V0.7H157.2z M153.4,7.9v17h3.7c1.2,0,2.2-0.3,2.9-1s1-1.9,1-3.7v-7.6c0-1.8-0.3-3.1-1-3.7c-0.7-0.7-1.6-1-2.9-1
		C157.1,7.9,153.4,7.9,153.4,7.9z"/>
	<path class="st1" d="M180.5,51.1h-7.9V0.7h7.9v21.6h9V0.7h8.1V51h-8.1V29.5h-9V51.1z"/>
	<path class="st1" d="M228.9,51.1h-8l-1.4-9.1h-9.7l-1.4,9.1h-7.3l8.1-50.3h11.6L228.9,51.1z M210.8,35.1h7.6l-3.8-25.5L210.8,35.1z
		"/>
	<path class="st1" d="M231,51.1c0.4-1,0.6-1.9,0.7-2.8c0.1-0.9,0.1-2,0.1-3.3v-7.8c0-2.6,0.4-4.9,1.1-6.7c0.7-1.8,2.1-3.2,4.1-4
		c-3.5-1.6-5.2-5-5.2-10.2v-4c0-3.9,0.9-6.8,2.8-8.7c1.8-1.9,4.8-2.9,9-2.9h11.9V51h-7.9V30.6H245c-1.8,0-3.1,0.5-4,1.4
		c-0.8,1-1.2,2.6-1.2,5v7.9c0,1,0,1.8,0,2.5s-0.1,1.2-0.1,1.7c-0.1,0.4-0.2,0.8-0.3,1.1s-0.2,0.6-0.3,0.9
		C239.1,51.1,231,51.1,231,51.1z M243.9,7.9c-1.4,0-2.4,0.4-3.1,1.2c-0.6,0.8-1,2.1-1,4v5c0,2,0.4,3.4,1.3,4.2
		c0.8,0.8,2,1.2,3.5,1.2h3.1V7.9H243.9z"/>
	<path class="st1" d="M282.9,31l-2.4,4.6v15.5h-7.9V0.7h7.9v21.9L291,0.7h7.8l-11,22.4l11,27.9h-8.1L282.9,31z"/>
	<path class="st1" d="M347.5,36.5l5.4-35.7h11v50.3h-7.5V15L351,51.1h-7.5l-5.9-35.6v35.6h-6.9V0.7h11L347.5,36.5z"/>
	<path class="st1" d="M377.6,51.1h-7.9V0.7h25V51h-8.1V7.9h-9V51.1z"/>
	<path class="st1" d="M426,51.1h-8l-1.4-9.1h-9.7l-1.4,9.1h-7.3l8.1-50.3h11.6L426,51.1z M407.9,35.1h7.6l-3.8-25.5L407.9,35.1z"/>
	<path class="st1" d="M329,51.1h-8l-1.4-9.1h-9.7l-1.4,9.1h-7.3l8.1-50.3h11.6L329,51.1z M310.9,35.1h7.6l-3.8-25.5L310.9,35.1z"/>
	<path class="st1" d="M437.5,51.1h-7.9V0.7h7.9v21.6h9V0.7h8.1V51h-8.1V29.5h-9V51.1z"/>
	<path class="st1" d="M468.4,51.1h-8.1V0.7h7.1v30.1l8.1-30.1h9.9V51h-7.1V14.6L468.4,51.1z"/>
	<path class="st1" d="M489.8,51.1c0.4-1,0.6-1.9,0.7-2.8c0.1-0.9,0.1-2,0.1-3.3v-7.8c0-2.6,0.4-4.9,1.1-6.7s2.1-3.2,4.1-4
		c-3.5-1.6-5.2-5-5.2-10.2v-4c0-3.9,0.9-6.8,2.8-8.7c1.8-1.9,4.8-2.9,9-2.9h11.9V51h-7.9V30.6h-2.7c-1.8,0-3.1,0.5-4,1.4
		c-0.8,1-1.2,2.6-1.2,5v7.9c0,1,0,1.8,0,2.5s-0.1,1.2-0.1,1.7c-0.1,0.4-0.2,0.8-0.3,1.1s-0.2,0.6-0.3,0.9
		C497.8,51.1,489.8,51.1,489.8,51.1z M502.6,7.9c-1.4,0-2.4,0.4-3.1,1.2c-0.6,0.8-1,2.1-1,4v5c0,2,0.4,3.4,1.3,4.2
		c0.8,0.8,2,1.2,3.5,1.2h3.1V7.9H502.6z"/>
	<path class="st1" d="M546.2,13.1c0-2.3-0.4-3.8-1.1-4.6c-0.7-0.8-1.7-1.2-3-1.2c-1.2,0-2.2,0.4-3,1.1c-0.7,0.7-1.1,2-1.1,3.8v5.4
		h-7.5v-4.9c0-4.1,1-7.2,3-9.4s4.9-3.3,8.8-3.3s6.8,1.1,8.8,3.3s3,5.3,3,9.4V14c0,5.4-1.8,8.8-5.5,10.4c2,0.9,3.4,2.2,4.3,4
		c0.8,1.8,1.3,4,1.3,6.6v4c0,4.1-1,7.2-3,9.4s-4.9,3.3-8.8,3.3s-6.8-1.1-8.8-3.3s-3-5.3-3-9.4v-6.3h7.5v6.8c0,1.8,0.4,3.1,1.1,3.8
		c0.7,0.7,1.7,1.1,3,1.1c1.2,0,2.2-0.4,3-1.2c0.7-0.8,1.1-2.3,1.1-4.5v-4c0-2.3-0.4-4-1.2-5s-2.1-1.4-4-1.4h-1.2v-7.2h1.7
		c1.5,0,2.7-0.4,3.5-1.2c0.8-0.8,1.3-2.2,1.3-4.2v-2.6H546.2z"/>
	<path class="st1" d="M584.8,51.1h-8l-1.4-9.1h-9.7l-1.4,9.1H557l8.1-50.3h11.6L584.8,51.1z M566.7,35.1h7.6l-3.8-25.5L566.7,35.1z"
		/>
</g>
</svg>
