<?xml version="1.0" encoding="utf-8"?>
<!-- Generator: Adobe Illustrator 22.0.1, SVG Export Plug-In . SVG Version: 6.00 Build 0)  -->
<svg version="1.1" id="Layer_1" xmlns="http://www.w3.org/2000/svg" xmlns:xlink="http://www.w3.org/1999/xlink" x="0px" y="0px"
	 viewBox="0 0 587 158" style="enable-background:new 0 0 587 158;" xml:space="preserve">
<style type="text/css">
	.st0{enable-background:new    ;}
	.st1{fill:#FFFFFF;}
</style>
<g class="st0">
	<path class="st1" d="M49.1,39.8c0-6.9-1.1-11.6-3.4-14.1c-2.3-2.4-5.4-3.7-9.2-3.7c-3.8,0-6.9,1.1-9.2,3.4
		c-2.3,2.3-3.4,6.2-3.4,11.8V54h-23v-15C0.8,26.4,3.8,16.7,10,10C16.1,3.3,25.1,0,37.1,0c12,0,21,3.4,27.1,10.1
		c6.1,6.7,9.2,16.3,9.2,28.9c0,8.4-1.3,16-3.9,22.8c-2.6,6.8-5.8,13-9.6,18.6c-3.8,5.6-8,10.7-12.4,15.4c-4.4,4.6-8.4,9.1-12,13.3
		s-6.3,8.4-8.4,12.5c-2.1,4.1-2.7,8.5-2,13.1h46.1v22.1H0.8v-19c0-7.5,1.2-14.2,3.5-19.9c2.4-5.8,5.3-11,9-15.8
		c3.6-4.8,7.5-9.3,11.6-13.5c4.1-4.2,8-8.7,11.6-13.4c3.6-4.7,6.6-9.9,9-15.5C47.9,53.9,49.1,47.3,49.1,39.8z"/>
	<path class="st1" d="M82.7,106.4L127,1.7h26.6v104.7h11.5v22.1h-11.5v28.1h-24.4v-28.1H82.7V106.4z M129.2,106.4V49.1l-24.1,57.3
		H129.2z"/>
	<path class="st1" d="M229.3,1.7v59.8c0,5.6,1.1,9.5,3.4,11.7c2.3,2.2,5.3,3.3,9.2,3.3c3.7,0,6.6-1,8.9-3c2.2-2,3.5-5.4,3.8-10.3
		V1.7h24.4v154.9h-24.4V97.1c-2.1,0.7-4.2,1.2-6.3,1.4c-2.1,0.2-4.5,0.3-7,0.3c-12,0-21-3.4-27.1-10.1c-6.1-6.7-9.2-16.3-9.2-28.9
		V1.7H229.3z"/>
	<path class="st1" d="M375.3,156.7h-24.6l-4.2-28.1h-29.9l-4.2,28.1H290L314.8,1.7h35.7L375.3,156.7z M319.7,107.5h23.5l-11.7-78.3
		L319.7,107.5z"/>
	<path class="st1" d="M456.8,98.9v20.6c0,12.5-3.1,22.2-9.2,28.9c-6.1,6.7-15.2,10.1-27.1,10.1s-21-3.4-27.1-10.1
		c-6.1-6.7-9.2-16.3-9.2-28.9V38.9c0-12.5,3.1-22.2,9.2-28.9C399.4,3.3,408.5,0,420.4,0s21,3.4,27.1,10.1c6.1,6.7,9.2,16.3,9.2,28.9
		v15h-23V37.4c0-5.6-1.1-9.6-3.4-11.8c-2.3-2.3-5.4-3.4-9.2-3.4c-3.8,0-6.9,1.1-9.2,3.4c-2.3,2.3-3.4,6.2-3.4,11.8V121
		c0,5.6,1.1,9.5,3.4,11.7c2.3,2.2,5.3,3.3,9.2,3.3c3.8,0,6.9-1.1,9.2-3.3c2.3-2.2,3.4-6.1,3.4-11.7V98.9H456.8z"/>
	<path class="st1" d="M550.9,156.7h-24.6l-4.2-28.1h-29.9l-4.2,28.1h-22.4L490.4,1.7h35.7L550.9,156.7z M495.3,107.5h23.5L507,29.2
		L495.3,107.5z"/>
	<path class="st1" d="M565,122.3l-3.1-56V1.7h24.4v64.6l-3.1,56H565z M585.9,133.2v23.5h-23.5v-23.5H585.9z"/>
</g>
</svg>
