<?xml version="1.0" encoding="utf-8"?>
<!-- Generator: Adobe Illustrator 22.0.1, SVG Export Plug-In . SVG Version: 6.00 Build 0)  -->
<svg version="1.1" id="Layer_1" xmlns="http://www.w3.org/2000/svg" xmlns:xlink="http://www.w3.org/1999/xlink" x="0px" y="0px"
	 viewBox="0 0 1211 198.5" style="enable-background:new 0 0 1211 198.5;" xml:space="preserve">
<style type="text/css">
	.st0{enable-background:new    ;}
	.st1{fill:#FFFFFF;}
</style>
<g class="st0">
	<path class="st1" d="M31.2,43.8v7.3c0,4.4-1.1,7.8-3.2,10.2c-2.2,2.4-5.4,3.6-9.6,3.6s-7.4-1.2-9.6-3.6c-2.2-2.4-3.2-5.8-3.2-10.2
		V22.6c0-4.4,1.1-7.8,3.2-10.2c2.2-2.4,5.4-3.6,9.6-3.6s7.4,1.2,9.6,3.6c2.2,2.4,3.2,5.8,3.2,10.2v5.3h-8.1v-5.9
		c0-2-0.4-3.4-1.2-4.2c-0.8-0.8-1.9-1.2-3.2-1.2c-1.4,0-2.4,0.4-3.2,1.2c-0.8,0.8-1.2,2.2-1.2,4.2v29.6c0,2,0.4,3.4,1.2,4.1
		c0.8,0.8,1.9,1.2,3.2,1.2c1.4,0,2.4-0.4,3.2-1.2c0.8-0.8,1.2-2.2,1.2-4.1v-7.8H31.2z"/>
	<path class="st1" d="M45.3,64.2h-8.6V9.5h27.1v54.8h-8.8V17.3h-9.8V64.2z"/>
	<path class="st1" d="M97.8,64.2h-8.7l-1.5-9.9H77.1l-1.5,9.9h-7.9l8.8-54.8h12.6L97.8,64.2z M78.2,46.9h8.3l-4.1-27.7L78.2,46.9z"
		/>
	<path class="st1" d="M126.6,43.8v7.3c0,4.4-1.1,7.8-3.2,10.2c-2.2,2.4-5.4,3.6-9.6,3.6s-7.4-1.2-9.6-3.6c-2.2-2.4-3.2-5.8-3.2-10.2
		V22.6c0-4.4,1.1-7.8,3.2-10.2c2.2-2.4,5.4-3.6,9.6-3.6s7.4,1.2,9.6,3.6c2.2,2.4,3.2,5.8,3.2,10.2v5.3h-8.1v-5.9
		c0-2-0.4-3.4-1.2-4.2c-0.8-0.8-1.9-1.2-3.2-1.2c-1.4,0-2.4,0.4-3.2,1.2c-0.8,0.8-1.2,2.2-1.2,4.2v29.6c0,2,0.4,3.4,1.2,4.1
		c0.8,0.8,1.9,1.2,3.2,1.2c1.4,0,2.4-0.4,3.2-1.2c0.8-0.8,1.2-2.2,1.2-4.1v-7.8H126.6z"/>
	<path class="st1" d="M140.6,32.6h11.8v7.8h-11.8v16h14.8v7.8H132V9.5h23.4v7.8h-14.8V32.6z"/>
	<path class="st1" d="M169.2,64.2h-8.6V9.5h8.6V33h9.8V9.5h8.8v54.8h-8.8V40.8h-9.8V64.2z"/>
	<path class="st1" d="M202.5,64.2h-8.6V9.5h8.6V33h9.8V9.5h8.8v54.8h-8.8V40.8h-9.8V64.2z"/>
	<path class="st1" d="M227.3,64.2V9.5h8.6v20.6h4.1c4.3,0,7.5,1.1,9.6,3.4c2.1,2.3,3.2,5.7,3.2,10.1v7.1c0,4.4-1.1,7.8-3.2,10.1
		c-2.1,2.3-5.3,3.4-9.6,3.4H227.3z M239.9,56.4c1.4,0,2.4-0.4,3.1-1.1c0.7-0.7,1.1-2.1,1.1-4.1V43c0-2-0.4-3.3-1.1-4.1
		c-0.7-0.7-1.8-1.1-3.1-1.1h-4.1v18.5H239.9z M257,9.5h8.6v54.8H257V9.5z"/>
	<path class="st1" d="M280.4,32.6h11.8v7.8h-11.8v16h14.8v7.8h-23.4V9.5h23.4v7.8h-14.8V32.6z"/>
</g>
<g class="st0">
	<path class="st1" d="M23.8,194.6H5.4V77.2h18.4v50.3h21V77.2h18.8v117.5H44.8v-50.3h-21V194.6z"/>
	<path class="st1" d="M136.5,194.6h-18.6l-3.2-21.3H92l-3.2,21.3H71.9L90.7,77.2h27L136.5,194.6z M94.4,157.4h17.8L103.3,98
		L94.4,157.4z"/>
	<path class="st1" d="M184.1,160.5l12.6-83.4h25.6v117.5h-17.4v-84.2l-12.7,84.2h-17.4l-13.7-83.1v83.1h-16.1V77.2h25.6L184.1,160.5
		z"/>
	<path class="st1" d="M254.6,194.6h-18.9V77.2h16.4v70.3l18.9-70.3h23.1v117.5h-16.6v-85.1L254.6,194.6z"/>
</g>
<g class="st0">
	<path class="st1" d="M347,120.3l-8.9,16.8v56.6h-28.9V9.5h28.9v80.3l38.4-80.3h28.4l-40.2,82.1l40.2,102.1h-29.7L347,120.3z"/>
	<path class="st1" d="M511.4,193.7h-29.2l-5-33.4h-35.5l-5,33.4h-26.6L439.6,9.5h42.3L511.4,193.7z M445.4,135.3h27.9l-13.9-93.2
		L445.4,135.3z"/>
	<path class="st1" d="M586,140.3L605.8,9.5H646v184.3h-27.3V61.6l-20,132.1h-27.3L549.8,63.4v130.3h-25.2V9.5h40.2L586,140.3z"/>
	<path class="st1" d="M696,193.7H667V9.5h91.2v184.3h-29.5V35.8H696V193.7z"/>
	<path class="st1" d="M872.7,193.7h-29.2l-5-33.4H803l-5,33.4h-26.6L800.9,9.5h42.3L872.7,193.7z M806.7,135.3h27.9l-13.9-93.2
		L806.7,135.3z"/>
	<path class="st1" d="M914.7,193.7h-28.9V9.5h28.9v79h32.9v-79H977v184.3h-29.5v-79h-32.9V193.7z"/>
	<path class="st1" d="M1027.8,193.7h-29.7V9.5h25.8v110.3l29.7-110.3h36.3v184.3h-26V60.3L1027.8,193.7z"/>
	<path class="st1" d="M1140.6,193.7h-29.7V9.5h25.8v110.3l29.7-110.3h36.3v184.3h-26V60.3L1140.6,193.7z"/>
</g>
</svg>
