<?xml version="1.0" encoding="utf-8"?>
<!-- Generator: Adobe Illustrator 23.0.1, SVG Export Plug-In . SVG Version: 6.00 Build 0)  -->
<svg version="1.1" id="Layer_1" xmlns="http://www.w3.org/2000/svg" xmlns:xlink="http://www.w3.org/1999/xlink" x="0px" y="0px"
	 width="681px" height="138px" viewBox="0 0 681 138" style="enable-background:new 0 0 681 138;" xml:space="preserve">
<style type="text/css">
	.st0{fill:#FFFFFF;}
</style>
<g>
	<path class="st0" d="M65.7,1.5v134.9H44.5V82.1c-4.6,5-12.3,7.5-18.1,7.5C9.1,89.6,0,77.1,0,58.6V1.5h21.2v55.3
		c0,9.1,5.6,13.3,12.3,13.3c6.7,0,11-4.8,11-13.9V1.5H65.7z"/>
	<path class="st0" d="M149.8,136.5h-21.4l-3.7-24.5h-26l-3.7,24.5H75.7L97.3,1.5h31L149.8,136.5z M101.5,93.7h20.4l-10.2-68.2
		L101.5,93.7z"/>
	<path class="st0" d="M221.1,86.2v17.9c0,21.6-10.8,33.9-31.6,33.9c-20.8,0-31.6-12.3-31.6-33.9V33.9c0-21.6,10.8-33.9,31.6-33.9
		c20.8,0,31.6,12.3,31.6,33.9V47h-20V32.6c0-9.6-4.2-13.3-11-13.3c-6.7,0-11,3.7-11,13.3v72.9c0,9.6,4.2,13.1,11,13.1
		c6.7,0,11-3.5,11-13.1V86.2H221.1z"/>
	<path class="st0" d="M227.8,1.5h65.5v19.3h-22.1v115.6H250V20.8h-22.1V1.5z"/>
	<path class="st0" d="M300.8,33.9C300.8,12.3,312.2,0,333,0c20.8,0,32.2,12.3,32.2,33.9v70.2c0,21.6-11.4,33.9-32.2,33.9
		c-20.8,0-32.2-12.3-32.2-33.9V33.9z M322,105.4c0,9.6,4.2,13.3,11,13.3c6.7,0,11-3.7,11-13.3V32.6c0-9.6-4.2-13.3-11-13.3
		c-6.7,0-11,3.7-11,13.3V105.4z"/>
</g>
<g>
	<path class="st0" d="M397.7,12.9c0-4.4-1.5-5.5-4-5.5c-2.4,0-4,1.3-4,4.8v4h-7v-3.6c0-7.8,3.7-12.1,11.2-12.1
		c7.5,0,11.4,4.4,11.4,12.2v1.2c0,5.2-1.7,8.5-5.3,10c3.8,1.7,5.3,5.3,5.3,10.2v3.8c0,7.8-3.9,12.2-11.4,12.2
		c-7.5,0-11.4-4.4-11.4-12.2v-5.3h7.2v5.8c0,3.5,1.5,4.8,4,4.8c2.4,0,4-1.2,4-5.5v-3.8c0-4.5-1.5-6.2-5-6.2h-1.9v-6.9h2.3
		c2.8,0,4.6-1.2,4.6-5.1V12.9z"/>
	<path class="st0" d="M435.1,49.5h-7.7l-1.3-8.8h-9.4l-1.3,8.8h-7L416.2,1h11.2L435.1,49.5z M417.7,34.1h7.3l-3.7-24.6L417.7,34.1z"
		/>
	<path class="st0" d="M460.7,56v-6.5h-16.3V56H437V42.7h3c1.3-1.7,1.7-3.5,1.9-6.3L443.6,1h21.4v41.8h3.3V56H460.7z M449.4,36.3
		c-0.2,3.7-0.9,5.3-2.1,6.5h10V7.9h-6.4L449.4,36.3z"/>
	<path class="st0" d="M497.2,49.5h-7.7l-1.3-8.8h-9.4l-1.3,8.8h-7L478.3,1h11.2L497.2,49.5z M479.8,34.1h7.3l-3.7-24.6L479.8,34.1z"
		/>
	<path class="st0" d="M523.5,12.1v1.7c0,5-1.5,8.2-4.9,9.8c4.1,1.6,5.7,5.3,5.7,10.4v4c0,7.5-4,11.5-11.6,11.5h-12V1h11.5
		C520.1,1,523.5,4.6,523.5,12.1z M508.3,7.9v12.8h3c2.8,0,4.6-1.2,4.6-5.1v-2.7c0-3.5-1.2-5-3.9-5H508.3z M508.3,27.7v14.9h4.4
		c2.6,0,4-1.2,4-4.8v-4.2c0-4.5-1.5-5.9-4.9-5.9H508.3z"/>
	<path class="st0" d="M553.5,49.5h-7.7l-1.3-8.8h-9.4l-1.3,8.8h-7L534.6,1h11.2L553.5,49.5z M536.1,34.1h7.3l-3.7-24.6L536.1,34.1z"
		/>
	<path class="st0" d="M564.7,21.4h10.5v6.9h-10.5v14.2h13.2v6.9h-20.8V1h20.8v6.9h-13.2V21.4z"/>
	<path class="st0" d="M598.7,35.4L603.9,1h10.6v48.6h-7.2V14.7l-5.3,34.8h-7.2l-5.7-34.3v34.3h-6.7V1h10.6L598.7,35.4z"/>
	<path class="st0" d="M620.1,49.5V1h7.6v18.2h3.6c7.6,0,11.4,4.2,11.4,12v6.3c0,7.8-3.7,12-11.4,12H620.1z M631.3,42.6
		c2.4,0,3.7-1.1,3.7-4.6v-7.3c0-3.5-1.3-4.6-3.7-4.6h-3.6v16.4H631.3z M647,49.5V1h7.6v48.6H647z"/>
	<path class="st0" d="M667.8,21.4h10.5v6.9h-10.5v14.2H681v6.9h-20.8V1H681v6.9h-13.2V21.4z"/>
</g>
<g>
	<path class="st0" d="M416.6,81.4V84c0,7.4-2.3,12.2-7.3,14.6c6.1,2.4,8.5,7.9,8.5,15.5v5.9c0,11.2-5.9,17.2-17.3,17.2h-17.9V64.8
		h17.2C411.5,64.8,416.6,70.2,416.6,81.4z M394,75.1v19.1h4.4c4.2,0,6.8-1.9,6.8-7.7v-4c0-5.2-1.8-7.4-5.8-7.4H394z M394,104.6v22.2
		h6.5c3.8,0,5.9-1.8,5.9-7.1v-6.3c0-6.7-2.2-8.8-7.3-8.8H394z"/>
	<path class="st0" d="M423.6,82.1c0-11.6,6.1-18.2,17.3-18.2c11.2,0,17.3,6.6,17.3,18.2v37.7c0,11.6-6.1,18.2-17.3,18.2
		c-11.2,0-17.3-6.6-17.3-18.2V82.1z M435,120.5c0,5.2,2.3,7.1,5.9,7.1c3.6,0,5.9-2,5.9-7.1V81.4c0-5.2-2.3-7.1-5.9-7.1
		c-3.6,0-5.9,2-5.9,7.1V120.5z"/>
	<path class="st0" d="M476.9,137.2h-11.4V64.8h35.9v72.4h-11.6V75.1h-12.9V137.2z"/>
	<path class="st0" d="M543.3,82.7v9.4c0,11.6-5.6,17.9-17,17.9H521v27.2h-11.4V64.8h16.7C537.7,64.8,543.3,71.1,543.3,82.7z
		 M521,75.1v24.5h5.4c3.6,0,5.6-1.7,5.6-6.8V81.9c0-5.2-2-6.8-5.6-6.8H521z"/>
	<path class="st0" d="M547.7,82.1c0-11.6,6.1-18.2,17.3-18.2c11.2,0,17.3,6.6,17.3,18.2v37.7c0,11.6-6.1,18.2-17.3,18.2
		c-11.2,0-17.3-6.6-17.3-18.2V82.1z M559,120.5c0,5.2,2.3,7.1,5.9,7.1c3.6,0,5.9-2,5.9-7.1V81.4c0-5.2-2.3-7.1-5.9-7.1
		c-3.6,0-5.9,2-5.9,7.1V120.5z"/>
	<path class="st0" d="M622.5,110.2v9.6c0,11.6-5.8,18.2-17,18.2s-17-6.6-17-18.2V82.1c0-11.6,5.8-18.2,17-18.2s17,6.6,17,18.2v7
		h-10.7v-7.8c0-5.2-2.3-7.1-5.9-7.1c-3.6,0-5.9,2-5.9,7.1v39.1c0,5.2,2.3,7,5.9,7c3.6,0,5.9-1.9,5.9-7v-10.3H622.5z"/>
	<path class="st0" d="M629.4,137.2V64.8h11.4V92h5.4c11.4,0,17,6.3,17,17.9v9.4c0,11.6-5.6,17.9-17,17.9H629.4z M646.2,126.8
		c3.6,0,5.6-1.7,5.6-6.8v-10.9c0-5.2-2-6.8-5.6-6.8h-5.4v24.5H646.2z M669.6,137.2V64.8H681v72.4H669.6z"/>
</g>
</svg>
