<?xml version="1.0" encoding="utf-8"?>
<!-- Generator: Adobe Illustrator 22.0.1, SVG Export Plug-In . SVG Version: 6.00 Build 0)  -->
<svg version="1.1" id="Layer_1" xmlns="http://www.w3.org/2000/svg" xmlns:xlink="http://www.w3.org/1999/xlink" x="0px" y="0px"
	 width="143.1px" height="41.3px" viewBox="0 0 143.1 41.3" style="enable-background:new 0 0 143.1 41.3;" xml:space="preserve">
<style type="text/css">
	.st0{fill:#FFFFFF;}
</style>
<g>
	<path class="st0" d="M1.4,9V2.6h1.8l1.6,4.7l1.5-4.7h1.8V9H6.8V4.5L5.3,9H4.2L2.7,4.5V9H1.4z"/>
	<path class="st0" d="M8.3,9l2.3-6.4h1.7L14.7,9h-1.5l-0.5-1.3h-2.6L9.7,9H8.3z M10.6,6.6h1.8l-0.9-2.7L10.6,6.6z"/>
	<path class="st0" d="M20.3,4.6L19,4.9c-0.2-0.8-0.7-1.3-1.4-1.3c-0.5,0-0.9,0.2-1.2,0.6c-0.3,0.4-0.4,0.9-0.4,1.7
		c0,1.4,0.5,2.1,1.6,2.1c0.9,0,1.4-0.5,1.5-1.5l1.4,0.2c-0.4,1.6-1.3,2.4-2.9,2.4c-0.8,0-1.5-0.2-2-0.7c-0.7-0.6-1-1.4-1-2.6
		c0-1.1,0.3-1.9,0.8-2.5c0.5-0.6,1.3-0.9,2.3-0.9c0.9,0,1.7,0.3,2.1,0.9C20,3.7,20.2,4.1,20.3,4.6z"/>
	<path class="st0" d="M22.6,9V3.8h-2.1V2.6h5.7v1.1h-2.1V9H22.6z"/>
	<path class="st0" d="M26.4,9V2.6h4.7v1.1h-3.3v1.4H31v1.1h-3.1v1.5h3.5V9H26.4z"/>
	<path class="st0" d="M31.8,9V2.6h3c0.7,0,1.2,0.2,1.6,0.5C36.8,3.5,37,4,37,4.7c0,0.6-0.2,1.1-0.7,1.5c-0.4,0.4-1,0.5-1.7,0.5h-1.5
		V9H31.8z M33.2,5.6h1.3c0.3,0,0.6-0.1,0.8-0.3c0.2-0.2,0.3-0.4,0.3-0.7c0-0.3-0.1-0.5-0.3-0.7c-0.2-0.2-0.4-0.2-0.8-0.2h-1.3V5.6z"
		/>
	<path class="st0" d="M39.2,9V2.6h4.5v1.1h-3.2v1.4h1.8c0.7,0,1.2,0.2,1.6,0.5c0.4,0.4,0.7,0.9,0.7,1.5c0,0.7-0.3,1.3-0.9,1.6
		c-0.4,0.2-1,0.3-1.7,0.3H39.2z M40.5,7.9H42c0.5,0,0.8-0.1,1-0.2c0.2-0.1,0.2-0.3,0.2-0.6c0-0.3-0.1-0.6-0.4-0.7
		c-0.2-0.1-0.5-0.1-0.8-0.1h-1.4V7.9z"/>
	<path class="st0" d="M44.5,9l2.3-6.4h1.7L50.9,9h-1.5L49,7.7h-2.6L45.8,9H44.5z M46.7,6.6h1.8l-0.9-2.7L46.7,6.6z"/>
	<path class="st0" d="M51.1,9V2.6h1.4v2.4h2.6V2.6h1.4V9h-1.4V6.2h-2.6V9H51.1z"/>
	<path class="st0" d="M57.3,9V2.6h1.4v2.4h2.6V2.6h1.4V9h-1.4V6.2h-2.6V9H57.3z"/>
	<path class="st0" d="M63.6,9V2.6h4.7v1.1H65v1.4h3.1v1.1H65v1.5h3.5V9H63.6z"/>
	<path class="st0" d="M69,9V2.6h3c0.7,0,1.2,0.2,1.6,0.5c0.4,0.4,0.6,0.9,0.6,1.5c0,0.6-0.2,1.1-0.7,1.5c-0.4,0.4-1,0.5-1.7,0.5
		h-1.5V9H69z M70.3,5.6h1.3c0.3,0,0.6-0.1,0.8-0.3c0.2-0.2,0.3-0.4,0.3-0.7c0-0.3-0.1-0.5-0.3-0.7c-0.2-0.2-0.4-0.2-0.8-0.2h-1.3
		V5.6z"/>
	<path class="st0" d="M77.8,8.3V6.5h-1.7V5.5h1.7V3.7h1.1v1.7h1.7v1.1h-1.7v1.7H77.8z"/>
	<path class="st0" d="M84.9,9V4.3c-0.4,0.3-0.8,0.5-1.3,0.7l-0.5-1c0.8-0.4,1.5-0.8,2-1.3h1.1V9H84.9z"/>
	<path class="st0" d="M87.6,7.5l1.2-0.3c0.1,0.7,0.5,1,1,1c0.7,0,1-0.4,1-1.3c0-0.4-0.1-0.6-0.3-0.8c-0.2-0.2-0.4-0.3-0.8-0.3
		c-0.3,0-0.5,0.1-0.7,0.3c-0.1,0.1-0.2,0.2-0.3,0.4l-1-0.2l0.6-3.4H92v1h-2.7l-0.3,1.4c0.3-0.3,0.7-0.4,1.2-0.4c0.6,0,1,0.2,1.4,0.5
		c0.4,0.3,0.5,0.9,0.5,1.6c0,0.7-0.2,1.2-0.6,1.6c-0.4,0.4-1,0.6-1.7,0.6c-0.9,0-1.5-0.2-1.9-0.7C87.9,8.2,87.7,7.8,87.6,7.5z"/>
	<path class="st0" d="M94.5,9V2.6h3c0.7,0,1.2,0.2,1.6,0.5c0.4,0.4,0.6,0.9,0.6,1.5c0,0.6-0.2,1.1-0.7,1.5c-0.4,0.4-1,0.5-1.7,0.5
		h-1.5V9H94.5z M95.9,5.6h1.3c0.3,0,0.6-0.1,0.8-0.3c0.2-0.2,0.3-0.4,0.3-0.7c0-0.3-0.1-0.5-0.3-0.7c-0.2-0.2-0.4-0.2-0.8-0.2h-1.3
		V5.6z"/>
	<path class="st0" d="M100.1,9V2.6h4.7v1.1h-3.3v1.4h3.1v1.1h-3.1v1.5h3.5V9H100.1z"/>
	<path class="st0" d="M111.1,4.6l-1.4,0.3c-0.2-0.8-0.7-1.3-1.4-1.3c-0.5,0-0.9,0.2-1.2,0.6c-0.3,0.4-0.4,0.9-0.4,1.7
		c0,1.4,0.5,2.1,1.6,2.1c0.9,0,1.4-0.5,1.5-1.5l1.4,0.2c-0.4,1.6-1.3,2.4-2.9,2.4c-0.8,0-1.5-0.2-2-0.7c-0.7-0.6-1-1.4-1-2.6
		c0-1.1,0.3-1.9,0.8-2.5c0.5-0.6,1.3-0.9,2.3-0.9c0.9,0,1.7,0.3,2.1,0.9C110.7,3.7,110.9,4.1,111.1,4.6z"/>
	<path class="st0" d="M110.9,9l2.3-6.4h1.7l2.3,6.4h-1.5l-0.5-1.3h-2.6L112.3,9H110.9z M113.1,6.6h1.8l-0.9-2.7L113.1,6.6z"/>
	<path class="st0" d="M122.9,9h-1.3V4.7L118.9,9h-1.4V2.6h1.3v4.3l2.6-4.3h1.4V9z M118.6,1h0.9c0,0.1,0.1,0.2,0.1,0.3
		c0.1,0.1,0.3,0.2,0.5,0.2c0.4,0,0.6-0.1,0.6-0.4h0.9c0,0.3-0.1,0.6-0.4,0.8c-0.3,0.3-0.7,0.4-1.2,0.4c-0.5,0-0.8-0.1-1.1-0.3
		C118.8,1.7,118.7,1.4,118.6,1z"/>
	<path class="st0" d="M123.3,7.1l1.3-0.2c0,0.8,0.4,1.2,1.1,1.2c0.3,0,0.6-0.1,0.8-0.2c0.2-0.2,0.3-0.4,0.3-0.7
		c0-0.4-0.2-0.6-0.5-0.8c-0.2-0.1-0.5-0.1-0.9-0.1v-1c0.9,0,1.4-0.3,1.4-0.9c0-0.2-0.1-0.4-0.2-0.5c-0.2-0.2-0.4-0.3-0.8-0.3
		c-0.7,0-1,0.3-1.1,1l-1.3-0.2c0.2-1.2,1-1.8,2.5-1.8c0.9,0,1.5,0.2,1.9,0.6c0.1,0.1,0.3,0.3,0.3,0.6c0.1,0.2,0.1,0.4,0.1,0.6
		c0,0.5-0.2,0.8-0.6,1.1c-0.2,0.1-0.4,0.2-0.7,0.3c0.9,0.1,1.3,0.6,1.3,1.4c0,0.5-0.2,0.9-0.5,1.2c-0.4,0.5-1.1,0.7-2,0.7
		c-0.8,0-1.5-0.2-1.9-0.6C123.5,8.2,123.3,7.7,123.3,7.1z"/>
	<path class="st0" d="M131.8,2.5c1,0,1.7,0.3,2.3,0.9c0.5,0.6,0.8,1.4,0.8,2.4c0,1-0.3,1.8-0.8,2.4c-0.5,0.6-1.3,0.9-2.3,0.9
		c-0.9,0-1.6-0.2-2.1-0.7c-0.7-0.6-1-1.4-1-2.6c0-1,0.3-1.9,0.8-2.4C130,2.8,130.8,2.5,131.8,2.5z M131.7,3.6
		c-0.5,0-0.9,0.2-1.2,0.6c-0.3,0.4-0.4,0.9-0.4,1.6c0,0.7,0.1,1.2,0.4,1.6c0.3,0.4,0.7,0.6,1.3,0.6c0.5,0,0.9-0.2,1.2-0.5
		c0.4-0.4,0.5-1,0.5-1.7c0-0.7-0.1-1.2-0.4-1.6C132.7,3.8,132.3,3.6,131.7,3.6z"/>
	<path class="st0" d="M135.5,9V2.6h3.1c0.6,0,1.1,0.1,1.5,0.3c0.4,0.3,0.7,0.7,0.7,1.3c0,0.6-0.3,1.1-0.8,1.4c0.7,0.3,1,0.8,1,1.5
		c0,1.3-0.9,1.9-2.6,1.9H135.5z M136.8,5.1h1.4c0.4,0,0.6-0.1,0.8-0.2c0.2-0.1,0.2-0.3,0.2-0.5c0-0.3-0.1-0.5-0.4-0.6
		c-0.1-0.1-0.4-0.1-0.6-0.1h-1.4V5.1z M136.8,7.9h1.4c0.5,0,0.8-0.1,1-0.2c0.2-0.1,0.2-0.3,0.2-0.6c0-0.3-0.1-0.6-0.4-0.7
		c-0.2-0.1-0.5-0.1-0.8-0.1h-1.4V7.9z"/>
	<path class="st0" d="M4.1,39.6c0.7-3.8,1.9-7.6,3.8-11.5c1.8-3.6,4-7,6.8-10.2H1.4v-4.7h18.8v4.4C15.1,23.7,11.7,31,9.8,39.6H4.1z"
		/>
	<path class="st0" d="M21.6,33.1l5-1.3c0.6,2.8,2,4.2,4.3,4.2c3,0,4.4-1.8,4.4-5.4c0-1.5-0.4-2.7-1.1-3.6c-0.8-0.9-1.9-1.3-3.3-1.3
		c-1.2,0-2.2,0.4-3,1.1c-0.5,0.4-0.9,0.9-1.1,1.5l-4.3-0.7l2.7-14.4h15v4.3H28.7l-1.1,6c1.3-1.2,3.1-1.7,5.2-1.7
		c2.4,0,4.3,0.7,5.8,2.1c1.5,1.5,2.3,3.7,2.3,6.6c0,3-0.8,5.3-2.4,7c-1.7,1.8-4,2.7-7.1,2.7c-3.7,0-6.4-1-8-3
		C22.5,36,21.9,34.6,21.6,33.1z"/>
	<path class="st0" d="M59.6,12.6c6.6,0,9.9,4.6,9.9,13.8c0,9.2-3.3,13.8-10,13.8c-6.6,0-9.9-4.6-9.9-13.8
		C49.6,17.2,52.9,12.6,59.6,12.6z M59.4,16.9c-1.7,0-2.8,0.9-3.5,2.8c-0.6,1.5-0.8,3.8-0.8,6.8c0,6.3,1.5,9.4,4.4,9.4
		c3,0,4.5-3.2,4.5-9.6C64,20,62.4,16.9,59.4,16.9z"/>
	<path class="st0" d="M80.5,12.6c6.6,0,9.9,4.6,9.9,13.8c0,9.2-3.3,13.8-10,13.8c-6.6,0-9.9-4.6-9.9-13.8
		C70.5,17.2,73.8,12.6,80.5,12.6z M80.3,16.9c-1.7,0-2.8,0.9-3.5,2.8c-0.6,1.5-0.8,3.8-0.8,6.8c0,6.3,1.5,9.4,4.4,9.4
		c3,0,4.5-3.2,4.5-9.6C84.9,20,83.4,16.9,80.3,16.9z"/>
	<path class="st0" d="M101.4,12.6c6.6,0,9.9,4.6,9.9,13.8c0,9.2-3.3,13.8-10,13.8c-6.6,0-9.9-4.6-9.9-13.8
		C91.4,17.2,94.8,12.6,101.4,12.6z M101.3,16.9c-1.7,0-2.8,0.9-3.5,2.8c-0.6,1.5-0.8,3.8-0.8,6.8c0,6.3,1.5,9.4,4.4,9.4
		c3,0,4.5-3.2,4.5-9.6C105.8,20,104.3,16.9,101.3,16.9z"/>
	<path class="st0" d="M132.7,35.6h-5.6v4h-4.4v-4h-3.6V32h3.6v-1.9h-3.6v-3.6h3.6V14.1h9.8c2.8,0,5.1,0.7,6.7,2.2
		c1.7,1.5,2.5,3.4,2.5,5.8c0,2.5-0.8,4.4-2.4,5.8c-1.6,1.4-3.8,2.1-6.7,2.2h-5.5V32h5.6V35.6z M127.1,26.6h5.3
		c1.6,0,2.8-0.4,3.6-1.1s1.3-1.8,1.3-3.3c0-1.3-0.4-2.4-1.2-3.2c-0.8-0.8-2-1.3-3.4-1.3h-5.5V26.6z"/>
</g>
</svg>
